<svg width="69" height="70" viewBox="0 0 69 70" fill="none" xmlns="http://www.w3.org/2000/svg">
<path d="M5.12451 26.7121C5.12451 19.16 5.12451 15.3839 6.59426 12.4993C7.8871 9.96199 9.95002 7.89907 12.4873 6.60623C15.3719 5.13647 19.148 5.13647 26.7001 5.13647H43.1659C50.7182 5.13647 54.4943 5.13647 57.3787 6.60623C59.916 7.89907 61.979 9.96199 63.2718 12.4993C64.7416 15.3839 64.7416 19.16 64.7416 26.7121V43.1779C64.7416 50.7301 64.7416 54.5062 63.2718 57.3906C61.979 59.928 59.916 61.9909 57.3787 63.2838C54.4943 64.7535 50.7182 64.7535 43.1659 64.7535H26.7001C19.148 64.7535 15.3719 64.7535 12.4873 63.2838C9.95002 61.9909 7.8871 59.928 6.59426 57.3906C5.12451 54.5062 5.12451 50.7301 5.12451 43.1779V26.7121Z" fill="#1E3101"/>
<path d="M18.1616 47.5863V22.2394C18.1616 22.0547 18.2411 21.9618 18.4 21.9618C18.8234 21.9618 19.3265 21.9551 19.9095 21.9418C21.2534 21.912 22.5973 21.8856 23.9414 21.8625C24.6961 21.8494 25.4442 21.8428 26.1859 21.8425C28.1983 21.8425 29.8931 22.0938 31.2706 22.5962C32.5131 23.0159 33.6462 23.707 34.5874 24.6192C35.3854 25.4099 36.0021 26.364 36.395 27.4158C36.7666 28.4393 36.9548 29.5201 36.9512 30.6088C36.9512 32.7247 36.4611 34.47 35.4814 35.8448C34.495 37.2251 33.1086 38.2704 31.5089 38.8397C29.7261 39.4808 27.8423 39.7966 25.9476 39.772C25.3648 39.772 24.9545 39.7654 24.7161 39.7521C24.4778 39.739 24.1202 39.7323 23.6436 39.7321V47.5464C23.6505 47.5949 23.6461 47.6443 23.6306 47.6908C23.6151 47.7372 23.589 47.7795 23.5543 47.8141C23.5197 47.8487 23.4774 47.8749 23.4309 47.8903C23.3843 47.9058 23.3348 47.9103 23.2863 47.9034H18.4397C18.2541 47.9036 18.1616 47.7984 18.1616 47.5863ZM23.6436 26.7217V34.9327C23.9875 34.9593 24.3053 34.9726 24.5969 34.9724H25.9078C26.8693 34.9864 27.8273 34.8526 28.748 34.5757C29.535 34.3423 30.2382 33.8879 30.7739 33.2667C31.2903 32.6587 31.5487 31.8126 31.5487 30.7281C31.5697 29.9608 31.3698 29.2036 30.9728 28.5464C30.5554 27.911 29.9521 27.4193 29.2449 27.1384C28.3216 26.7799 27.3352 26.6113 26.345 26.6427C25.7095 26.6427 25.1467 26.6493 24.6566 26.6624C24.1661 26.6759 23.8286 26.6959 23.6436 26.7217ZM51.6886 43.9767V47.2293C51.6886 47.5205 51.5827 47.6925 51.3708 47.745C50.8494 47.9081 50.3188 48.0406 49.7818 48.1416C49.1526 48.2535 48.5141 48.3067 47.8751 48.3003C46.1531 48.3003 44.8027 47.8507 43.8232 46.9516C42.8432 46.0529 42.3531 44.6118 42.3534 42.628V32.7907H40.0097C39.7975 32.7907 39.6919 32.6717 39.6919 32.4337V28.5067C39.6919 28.2953 39.811 28.1897 40.0494 28.1894H42.3931C42.4193 27.74 42.4523 27.2177 42.4926 26.6227C42.5323 26.0277 42.5851 25.4327 42.6515 24.8377C42.7173 24.2427 42.7768 23.7601 42.8301 23.39C42.8562 23.3107 42.8967 23.2368 42.9493 23.172C43.0006 23.1074 43.0694 23.0591 43.1479 23.0333L47.8751 22.4383C47.9787 22.4213 48.0458 22.4213 48.0934 22.4491C48.146 22.4757 48.1531 22.5442 48.1531 22.6763C48.0998 23.2848 48.0601 24.1114 48.034 25.1553C48.0073 26.2002 47.9807 27.2118 47.9545 28.1897H51.6488C51.8077 28.1897 51.8872 28.2953 51.8872 28.507V32.5133C51.897 32.5763 51.8816 32.6406 51.8445 32.6925C51.8074 32.7444 51.7514 32.7797 51.6886 32.791H47.9148V41.2796C47.9148 42.1788 48.067 42.8202 48.3717 43.2033C48.6757 43.5869 49.2385 43.7788 50.0599 43.7786C50.4981 43.7796 50.9359 43.7531 51.3708 43.6992C51.4428 43.6724 51.5233 43.6795 51.5891 43.7189C51.655 43.7586 51.6886 43.8446 51.6886 43.9767Z" fill="#99E83F"/>
</svg>
