<svg width="69" height="68" viewBox="0 0 69 68" fill="none" xmlns="http://www.w3.org/2000/svg">
<path d="M5.12451 25.8489C5.12451 18.3548 5.12451 14.6078 6.59426 11.7454C7.8871 9.2276 9.95002 7.18055 12.4873 5.89766C15.3719 4.43921 19.148 4.43921 26.7001 4.43921H43.1659C50.7182 4.43921 54.4943 4.43921 57.3787 5.89766C59.916 7.18055 61.979 9.2276 63.2718 11.7454C64.7416 14.6078 64.7416 18.3548 64.7416 25.8489V42.188C64.7416 49.6821 64.7416 53.4292 63.2718 56.2914C61.979 58.8092 59.916 60.8563 57.3787 62.1392C54.4943 63.5977 50.7182 63.5977 43.1659 63.5977H26.7001C19.148 63.5977 15.3719 63.5977 12.4873 62.1392C9.95002 60.8563 7.8871 58.8092 6.59426 56.2914C5.12451 53.4292 5.12451 49.6821 5.12451 42.188V25.8489Z" fill="#330000"/>
<path d="M34.0145 41.6167H24.7762L22.8966 47.5594C22.8444 47.7802 22.6396 47.9365 22.4167 47.9255H17.7374C17.4706 47.9255 17.3773 47.7764 17.4575 47.4778L25.4561 24.0329C25.5361 23.7887 25.6162 23.5106 25.696 23.1986C25.8008 22.6554 25.8542 22.1035 25.8561 21.5502C25.8331 21.3866 25.9779 21.2422 26.1359 21.2651H32.4949C32.6812 21.2651 32.7877 21.333 32.8147 21.4686L41.8933 47.5186C41.9732 47.7901 41.8933 47.9258 41.6534 47.9255H36.4541C36.2719 47.9462 36.0977 47.8222 36.0543 47.6407L34.0145 41.6167ZM26.216 36.4881H32.5349C31.4968 32.9677 30.3251 29.4937 29.3755 25.9461C28.3509 29.4998 27.2331 33.0392 26.216 36.4881Z" fill="#FF9A00"/>
<path d="M47.2918 25.5794C46.8838 25.5961 46.4771 25.5249 46.0979 25.3707C45.7189 25.2164 45.3762 24.9823 45.0921 24.684C44.8089 24.3726 44.5888 24.0075 44.4446 23.6092C44.3005 23.2112 44.2351 22.788 44.2522 22.364C44.2377 21.9441 44.3103 21.526 44.4653 21.1367C44.6205 20.7475 44.8545 20.3959 45.1522 20.1049C45.4468 19.8169 45.7947 19.5913 46.1759 19.4411C46.5568 19.2909 46.9632 19.2191 47.3716 19.2298C48.3317 19.2298 49.0848 19.5215 49.6313 20.1049C49.9073 20.4081 50.1217 20.7637 50.2624 21.1513C50.4029 21.5389 50.4672 21.9511 50.4511 22.364C50.4679 22.7895 50.4004 23.2144 50.2526 23.6128C50.1051 24.0113 49.88 24.3756 49.5913 24.684C49.2896 24.9868 48.9293 25.2226 48.5337 25.3768C48.1379 25.5308 47.7151 25.5999 47.2918 25.5794ZM44.5321 47.5183V28.0624C44.5321 27.8182 44.6384 27.696 44.8522 27.696H49.7714C49.9843 27.696 50.091 27.8182 50.0912 28.0624V47.5183C50.0912 47.7901 49.9846 47.9257 49.7714 47.9255H44.8922C44.6522 47.9255 44.5321 47.7898 44.5321 47.5183Z" fill="#FF9A00"/>
</svg>
