<svg width="69" height="69" viewBox="0 0 69 69" fill="none" xmlns="http://www.w3.org/2000/svg">
<path d="M5.12451 26.1848C5.12451 18.6908 5.12451 14.9437 6.59426 12.0813C7.8871 9.56354 9.95002 7.51649 12.4873 6.23359C15.3719 4.77515 19.148 4.77515 26.7001 4.77515H43.1659C50.7182 4.77515 54.4943 4.77515 57.3787 6.23359C59.916 7.51649 61.979 9.56354 63.2718 12.0813C64.7416 14.9437 64.7416 18.6908 64.7416 26.1848V42.524C64.7416 50.0181 64.7416 53.7651 63.2718 56.6273C61.979 59.1452 59.916 61.1923 57.3787 62.4752C54.4943 63.9336 50.7182 63.9336 43.1659 63.9336H26.7001C19.148 63.9336 15.3719 63.9336 12.4873 62.4752C9.95002 61.1923 7.8871 59.1452 6.59426 56.6273C5.12451 53.7651 5.12451 50.0181 5.12451 42.524V26.1848Z" fill="#001E36"/>
<path d="M17.8994 48.1218V22.1072C17.8994 21.9304 17.9739 21.8292 18.1478 21.8292C20.7148 21.8292 23.2807 21.6775 25.8483 21.6775C30.0149 21.6775 34.5262 23.0912 36.1075 27.4163C36.4801 28.4782 36.6788 29.5652 36.6788 30.703C36.6788 32.8772 36.1821 34.6721 35.1884 36.0879C32.4128 40.0426 27.6021 39.9811 23.2899 39.9811V48.0966C23.3235 48.3368 23.1172 48.4505 22.9173 48.4505H18.1975C17.9988 48.4505 17.8994 48.3493 17.8994 48.1218ZM23.3146 26.7085V35.203C25.0245 35.3273 26.8137 35.3408 28.4565 34.7986C30.2704 34.2793 31.2636 32.7215 31.2636 30.8547C31.3139 29.2639 30.4405 27.7376 28.9535 27.1636C27.3304 26.4938 25.0667 26.4537 23.3146 26.7085Z" fill="#31A8FF"/>
<path d="M52.1723 33.5249C51.4207 33.1317 50.6201 32.8442 49.7925 32.6701C48.7292 32.4218 44.5352 31.5522 44.5335 33.7284C44.5707 34.9432 46.5142 35.5384 47.3729 35.8856C50.3876 36.9126 53.799 38.7484 53.7319 42.4388C53.8241 47.0329 49.3384 48.8696 45.4933 48.87C43.4916 48.8905 41.4063 48.5829 39.5744 47.7301C39.3994 47.6382 39.2869 47.4419 39.2944 47.2417V42.8458C39.2746 42.6695 39.4654 42.5155 39.6144 42.6423C41.4093 43.7194 43.5368 44.2425 45.6134 44.2704C46.53 44.2704 48.3466 44.1823 48.333 42.8458C48.333 41.5633 46.1597 40.9736 45.2934 40.6478C44.0376 40.2031 42.8469 39.5868 41.754 38.8162C40.2265 37.7351 39.2684 36.0018 39.2944 34.0947C39.2855 29.769 43.4146 27.8273 47.1332 27.8265C48.8714 27.8121 50.7383 27.9399 52.3565 28.6405C52.5892 28.7084 52.6373 28.9518 52.6365 29.1696V33.2807C52.6512 33.5359 52.3656 33.6227 52.1723 33.5249Z" fill="#31A8FF"/>
</svg>
