<svg width="69" height="69" viewBox="0 0 69 69" fill="none" xmlns="http://www.w3.org/2000/svg">
<path d="M28.2635 37.4065C28.4954 33.2371 30.5213 29.5637 33.5776 26.9598C36.5748 24.4021 40.609 22.8389 45.0108 22.8389C49.4081 22.8389 53.4424 24.4021 56.4418 26.9598C59.4959 29.5637 61.5217 33.2371 61.7558 37.4021C61.9877 41.6862 60.2791 45.666 57.2819 48.6162C54.2256 51.617 49.8785 53.5001 45.0108 53.5001C40.143 53.5001 35.7872 51.617 32.7331 48.6162C29.7337 45.666 28.0294 41.6862 28.2635 37.4065Z" fill="white"/>
<path d="M36.4182 37.7807C36.5372 35.6413 37.5767 33.7565 39.1448 32.4204C40.6827 31.108 42.7527 30.3059 45.0113 30.3059C47.2676 30.3059 49.3376 31.108 50.8766 32.4204C52.4437 33.7565 53.4831 35.6413 53.6033 37.7784C53.7222 39.9766 52.8456 42.0187 51.3077 43.5324C49.7395 45.0722 47.509 46.0383 45.0113 46.0383C42.5136 46.0383 40.2786 45.0722 38.7115 43.5324C37.1725 42.0187 36.2981 39.9766 36.4182 37.7807Z" fill="#265787"/>
<path d="M22.7342 42.1036C22.7488 42.9408 23.0137 44.5677 23.4111 45.8382C24.2463 48.5274 25.6629 51.0151 27.6341 53.2077C29.657 55.4613 32.1479 57.2715 35.025 58.5567C38.0491 59.9064 41.3259 60.5942 44.7294 60.5886C48.1274 60.584 51.4041 59.8826 54.4283 58.5227C57.3053 57.2251 59.794 55.407 61.8135 53.1523C63.7835 50.9507 65.198 48.4583 66.0354 45.7691C66.4564 44.4104 66.7224 43.0313 66.829 41.6477C66.9334 40.2844 66.8897 38.9188 66.6977 37.5545C66.3228 34.8958 65.4101 32.4012 64.0047 30.1272C62.7194 28.0376 61.0625 26.2082 59.0924 24.6685L59.0969 24.6651L39.2155 9.27997C39.1975 9.26639 39.1829 9.25171 39.1638 9.23926C37.8594 8.23011 35.666 8.23351 34.2314 9.24493C32.781 10.2677 32.6149 11.959 33.9058 13.0258L33.9002 13.0315L42.1925 19.8275L16.9183 19.8546H16.8846C14.7956 19.8569 12.7873 21.2383 12.3899 22.9839C11.9813 24.7624 13.4002 26.2376 15.5724 26.2456L15.569 26.2535L28.3795 26.2286L5.51993 43.9126C5.49074 43.9341 5.45931 43.9567 5.43237 43.9782C3.27595 45.6424 2.57887 48.4097 3.93715 50.161C5.31564 51.9417 8.24661 51.9451 10.4255 50.1712L22.9015 39.8805C22.9015 39.8805 22.7196 41.2698 22.7342 42.1036ZM54.7931 46.7556C52.2224 49.3951 48.6235 50.8919 44.7294 50.8998C40.8297 50.9066 37.2308 49.4234 34.6602 46.7885C33.404 45.5044 32.4813 44.0269 31.9122 42.4532C31.3543 40.9066 31.1376 39.265 31.2813 37.6088C31.4171 35.9898 31.8953 34.4455 32.6587 33.0483C33.4085 31.6749 34.4413 30.4338 35.7165 29.3839C38.2153 27.3317 41.3966 26.2207 44.7238 26.2161C48.0544 26.2116 51.2335 27.3124 53.7345 29.3579C55.0075 30.4032 56.0391 31.6398 56.789 33.011C57.5557 34.4071 58.0305 35.9457 58.1719 37.5692C58.3134 39.2232 58.0967 40.8625 57.5388 42.4102C56.9686 43.9884 56.0492 45.4659 54.7931 46.7556Z" fill="#EA7600"/>
</svg>
