<svg width="100" height="100" viewBox="0 0 100 100" fill="none" xmlns="http://www.w3.org/2000/svg">
<path d="M88.8044 29.9413L50.1857 40.426V75.9429L86.4244 63.5761C86.7275 63.4727 86.9376 63.1957 86.9555 62.876L88.8044 29.9413Z" fill="#FFA45E"/>
<path d="M11.436 29.9413L50.1857 40.426L50.2396 24.0183C50.1604 24.0062 50.0799 24.0062 50.0008 24.0183L11.436 29.9413Z" fill="#FFA45E"/>
<path d="M50.1857 40.426L88.8044 29.9413L50.2396 24.0183L50.1857 40.426Z" fill="#FFA45E"/>
<path d="M50.1857 40.426L11.436 29.9413L13.414 62.8783C13.4331 63.1969 13.6429 63.4723 13.9449 63.5754L50.1857 75.9429V40.426Z" fill="#FFA45E"/>
<path d="M11.436 29.9413L50.1857 40.426M11.436 29.9413L13.414 62.8783M11.436 29.9413L50.0008 24.0183M88.8044 29.9413L50.1857 40.426M88.8044 29.9413L86.9555 62.876M88.8044 29.9413L50.2396 24.0183M50.1857 40.426V75.9429M50.1857 40.426L50.2396 24.0183M50.1857 75.9429L86.4244 63.5761M50.1857 75.9429L13.9449 63.5754M86.9555 62.876C86.9376 63.1957 86.7275 63.4727 86.4244 63.5761M86.9555 62.876V62.876C86.9376 63.1957 86.7275 63.4727 86.4244 63.5761V63.5761M13.9449 63.5754C13.6429 63.4723 13.4331 63.1969 13.414 62.8783M13.9449 63.5754V63.5754C13.6429 63.4723 13.4331 63.1969 13.414 62.8783V62.8783M50.0008 24.0183C50.0799 24.0062 50.1604 24.0062 50.2396 24.0183M50.0008 24.0183V24.0183C50.0799 24.0062 50.1604 24.0062 50.2396 24.0183V24.0183" stroke="#271E17" stroke-width="4" stroke-linejoin="round"/>
<path d="M48.9907 40.1465L11.9171 30.1266C11.59 30.0382 11.2403 30.1215 10.9882 30.3478L3.25226 37.2922C2.6877 37.799 2.87098 38.7252 3.586 38.9788L42.8099 52.8903C43.2814 53.0576 43.8039 52.8507 44.0331 52.406L49.6186 41.5701C49.9105 41.0039 49.6056 40.3127 48.9907 40.1465Z" fill="#FFA45E" stroke="#271E17" stroke-width="4" stroke-linejoin="round"/>
<path d="M51.3374 40.1902L88.411 30.1703C88.7381 30.0819 89.0878 30.1652 89.3399 30.3915L97.0759 37.3359C97.6404 37.8427 97.4571 38.7689 96.7421 39.0225L57.5182 52.934C57.0467 53.1013 56.5242 52.8944 56.295 52.4497L50.7095 41.6138C50.4176 41.0476 50.7225 40.3564 51.3374 40.1902Z" fill="#FFA45E" stroke="#271E17" stroke-width="4" stroke-linejoin="round"/>
</svg>
