<svg width="100" height="100" viewBox="0 0 100 100" fill="none" xmlns="http://www.w3.org/2000/svg">
<path fill-rule="evenodd" clip-rule="evenodd" d="M85 50C85 69.3305 69.3305 85 50 85C44.4 85 39.108 83.684 34.418 81.346C33.1795 80.7044 31.7489 80.5388 30.3965 80.8805L22.6055 82.9665C21.8344 83.1723 21.0227 83.1716 20.2519 82.9645C19.4811 82.7574 18.7783 82.3512 18.2141 81.7866C17.65 81.2221 17.2442 80.5191 17.0376 79.7482C16.831 78.9772 16.8308 78.1655 17.037 77.3945L19.1195 69.6035C19.4592 68.2518 19.2924 66.8226 18.6505 65.5855C16.2413 60.7438 14.9915 55.408 15 50C15 30.6695 30.6695 15 50 15C69.3305 15 85 30.6695 85 50ZM50 33.375C50.6962 33.375 51.3639 33.6516 51.8562 34.1438C52.3485 34.6361 52.625 35.3038 52.625 36V64C52.625 64.6962 52.3485 65.3639 51.8562 65.8562C51.3639 66.3484 50.6962 66.625 50 66.625C49.3038 66.625 48.6361 66.3484 48.1439 65.8562C47.6516 65.3639 47.375 64.6962 47.375 64V36C47.375 35.3038 47.6516 34.6361 48.1439 34.1438C48.6361 33.6516 49.3038 33.375 50 33.375ZM38.625 43C38.625 42.3038 38.3485 41.6361 37.8562 41.1438C37.3639 40.6516 36.6962 40.375 36 40.375C35.3038 40.375 34.6362 40.6516 34.1439 41.1438C33.6516 41.6361 33.375 42.3038 33.375 43V57C33.375 57.6962 33.6516 58.3639 34.1439 58.8562C34.6362 59.3484 35.3038 59.625 36 59.625C36.6962 59.625 37.3639 59.3484 37.8562 58.8562C38.3485 58.3639 38.625 57.6962 38.625 57V43ZM64 40.375C64.6962 40.375 65.3639 40.6516 65.8562 41.1438C66.3484 41.6361 66.625 42.3038 66.625 43V57C66.625 57.6962 66.3484 58.3639 65.8562 58.8562C65.3639 59.3484 64.6962 59.625 64 59.625C63.3038 59.625 62.6361 59.3484 62.1439 58.8562C61.6516 58.3639 61.375 57.6962 61.375 57V43C61.375 42.3038 61.6516 41.6361 62.1439 41.1438C62.6361 40.6516 63.3038 40.375 64 40.375Z" fill="#FFA45E"/>
</svg>
