<svg width="100" height="100" viewBox="0 0 100 100" fill="none" xmlns="http://www.w3.org/2000/svg">
<path d="M48.7402 43.4287C49.1373 42.848 49.994 42.848 50.3911 43.4287L55.5265 50.9384C55.8493 51.4103 56.5013 51.5161 56.9567 51.1703L60.4528 48.5158C61.2001 47.9484 62.247 48.6299 62.0305 49.5429L61.3269 52.511C61.22 52.9619 60.8173 53.2803 60.3539 53.2803H38.7774C38.3139 53.2803 37.9112 52.9619 37.8043 52.511L37.1007 49.5429C36.8842 48.6299 37.9311 47.9484 38.6784 48.5158L42.1745 51.1703C42.6299 51.5161 43.282 51.4103 43.6047 50.9384L48.7402 43.4287ZM50.3881 36.0387C49.9905 35.4637 49.1407 35.4637 48.7431 36.0387L42.5167 45.0437C42.1915 45.5139 41.5391 45.6164 41.0855 45.2685L32.0628 38.3485C31.3244 37.7821 30.2806 38.443 30.4767 39.3526L34.1026 56.1772C34.2019 56.6378 34.6091 56.9666 35.0802 56.9666H64.0511C64.5222 56.9666 64.9294 56.6378 65.0286 56.1772L68.6546 39.3526C68.8506 38.443 67.8068 37.7821 67.0684 38.3485L58.0457 45.2685C57.5921 45.6164 56.9397 45.5139 56.6146 45.0437L50.3881 36.0387ZM64.8585 61.6528C64.8585 61.1005 64.4108 60.6528 63.8585 60.6528H35.2727C34.7204 60.6528 34.2727 61.1005 34.2727 61.6528V62.4959C34.2727 63.6018 35.1466 64.339 36.4574 64.339H62.6738C63.9846 64.339 64.8585 63.6018 64.8585 62.4959V61.6528Z" fill="#FFA45E"/>
<path d="M26.263 25.7539C29.0034 29.1097 28.2252 34.5077 27.0029 35.8931L26.9152 35.8435C24.1638 34.2925 22.3824 33.2879 19.7242 30.3737C14.9612 25.1357 16.03 19.7156 16.3698 17C21.1657 21.6364 21.7083 20.1847 26.263 25.7539Z" fill="#FFA45E"/>
<path d="M21.4398 34.4468C24.9476 36.9692 25.5834 42.3893 24.7613 44.0452L24.6681 44.0231C21.6097 43.2449 19.6311 42.7371 16.3151 40.6121C10.3628 36.7926 9.99553 31.2842 9.63379 28.5686C15.4601 31.7975 15.608 30.252 21.4398 34.4468Z" fill="#FFA45E"/>
<path d="M19.0064 44.106C23.0459 45.6294 25.0519 50.7018 24.6847 52.5122H24.586C21.4345 52.5563 19.3901 52.5839 15.6411 51.3917C8.91048 49.2557 7.14561 44.0288 6.09326 41.5009C12.5498 43.1015 12.2977 41.5726 19.0064 44.1005V44.106Z" fill="#FFA45E"/>
<path d="M19.1434 54.0634C23.435 54.4829 26.6742 58.8598 26.7893 60.7033L26.6961 60.7309C23.6597 61.5919 21.6975 62.1549 17.7676 61.9783C10.7136 61.6692 7.66621 57.077 6 54.9134C12.6484 54.7754 12.0126 53.3624 19.1434 54.0579V54.0634Z" fill="#FFA45E"/>
<path d="M21.8344 63.6449C26.0877 62.9328 30.3409 66.3108 30.9274 68.0659L30.8451 68.1156C28.1376 69.7383 26.3836 70.7926 22.547 71.6481C15.6574 73.188 11.5302 69.5507 9.36523 67.8893C15.756 66.0237 14.7749 64.826 21.8399 63.6393L21.8344 63.6449Z" fill="#FFA45E"/>
<path d="M26.8935 72.2057C30.8178 70.4064 35.8 72.5645 36.814 74.11L36.7428 74.1817C34.5449 76.4557 33.1198 77.9294 29.6339 79.7564C23.3747 83.0405 18.4528 80.6008 15.937 79.5632C21.6263 76.097 20.3711 75.1973 26.8989 72.2057H26.8935Z" fill="#FFA45E"/>
<path d="M82.7555 17C83.1008 19.7156 84.1642 25.1357 79.3957 30.3737C76.7429 33.2935 74.9616 34.2925 72.2047 35.8435L72.117 35.8931C70.9002 34.5077 70.1164 29.1042 72.8569 25.7539C77.4171 20.1847 77.9597 21.6364 82.7555 17Z" fill="#FFA45E"/>
<path d="M89.497 28.5686C89.1297 31.2842 88.768 36.7926 82.8157 40.6121C79.4997 42.7371 77.5211 43.2449 74.4627 44.0231L74.3695 44.0452C73.5474 42.3893 74.1831 36.9692 77.691 34.4468C83.5227 30.252 83.6707 31.7975 89.497 28.5686Z" fill="#FFA45E"/>
<path d="M93.0376 41.5009C91.9853 44.0288 90.2204 49.2557 83.4843 51.3917C79.7353 52.5784 77.6964 52.5508 74.5394 52.5122H74.4407C74.0735 50.6963 76.0795 45.6294 80.119 44.106C86.8277 41.5726 86.5756 43.107 93.0322 41.5064L93.0376 41.5009Z" fill="#FFA45E"/>
<path d="M93.1311 54.9132C91.4649 57.0769 88.4175 61.6691 81.3635 61.9781C77.4391 62.1493 75.4714 61.5918 72.435 60.7308L72.3418 60.7032C72.4514 58.8541 75.6962 54.4827 79.9877 54.0632C87.1185 53.3678 86.4827 54.7808 93.1311 54.9188V54.9132Z" fill="#FFA45E"/>
<path d="M89.7711 67.8951C87.6061 69.551 83.479 73.1938 76.5894 71.6539C72.7527 70.7984 70.9988 69.7441 68.2912 68.1214L68.209 68.0717C68.79 66.3165 73.0432 62.9331 77.3019 63.6506C84.3724 64.8373 83.3913 66.0351 89.7766 67.9006L89.7711 67.8951Z" fill="#FFA45E"/>
<path d="M83.1939 79.5632C80.6781 80.6008 75.7562 83.0405 69.497 79.7564C66.0111 77.9294 64.586 76.4557 62.3881 74.1817L62.3169 74.11C63.3309 72.5645 68.3076 70.4064 72.2374 72.2057C78.7598 75.1918 77.5047 76.097 83.1994 79.5632H83.1939Z" fill="#FFA45E"/>
</svg>
