<svg width="73" height="73" viewBox="0 0 73 73" fill="none" xmlns="http://www.w3.org/2000/svg">
<path d="M66 37C66 53.5685 52.5685 67 36 67C19.4315 67 6 53.5685 6 37C6 29.5561 8.7112 22.7453 13.2 17.5015C18.7023 11.0736 26.8754 7 36 7C45.1246 7 53.2977 11.0736 58.8 17.5015C63.2888 22.7453 66 29.5561 66 37Z" fill="#FFA45E"/>
<path d="M42.9197 36.676L36.3225 41.9406L29.7253 36.676M42.9197 36.676L62.7113 51.8381M42.9197 36.676L62.7113 20.8821M29.7253 36.676L9.93375 20.8821M29.7253 36.676L9.42627 52.2834" stroke="#271E17" stroke-width="7"/>
</svg>
