<svg width="69" height="69" viewBox="0 0 69 69" fill="none" xmlns="http://www.w3.org/2000/svg">
<path d="M37.2905 34.5019C37.2905 29.617 41.2226 25.6606 46.0693 25.6606C50.9198 25.6606 54.8481 29.6133 54.8481 34.5019C54.8481 39.3868 50.9198 43.3432 46.0693 43.3432C41.2265 43.3432 37.2905 39.3906 37.2905 34.5019Z" fill="#1ABCFE"/>
<path d="M19.7329 52.3162C19.7329 47.3606 23.665 43.343 28.5117 43.343H37.2905V52.3162C37.2905 57.268 33.3583 61.2856 28.5117 61.2856C23.665 61.2856 19.7329 57.268 19.7329 52.3162Z" fill="#0ACF83"/>
<path d="M37.2905 7.71802V25.6606H46.0693C50.9198 25.6606 54.8481 21.643 54.8481 16.6874C54.8481 11.7356 50.9198 7.71802 46.0693 7.71802H37.2905Z" fill="#FF7262"/>
<path d="M19.7329 16.6874C19.7329 21.643 23.665 25.6606 28.5117 25.6606H37.2905V7.71802H28.5117C23.665 7.71802 19.7329 11.7356 19.7329 16.6874Z" fill="#F24E1E"/>
<path d="M19.7329 34.5019C19.7329 39.3868 23.665 43.3432 28.5117 43.3432H37.2905V25.6606H28.5117C23.665 25.6606 19.7329 29.6133 19.7329 34.5019Z" fill="#A259FF"/>
</svg>
