<svg width="109" height="164" viewBox="0 0 109 164" fill="none" xmlns="http://www.w3.org/2000/svg">
<g clip-path="url(#clip0_700_1052)">
<path d="M69.6352 121.118C72.7124 119.573 75.6658 117.748 78.6321 116C80.3859 114.97 81.7941 114.188 82.5569 112.2C83.0589 110.896 82.8112 109.266 83.3067 108.047C83.6261 107.264 84.6171 106.671 85.3016 106.084L74.577 112.278C80.3142 114.996 88.2419 117.604 94.3899 114.964C98.1647 113.341 101.366 110.387 105.115 108.77C98.9666 111.417 91.0453 108.809 85.3016 106.084C84.6692 105.784 80.575 108.744 79.91 109.129C78.1888 110.12 76.096 110.98 74.577 112.278C73.4035 113.282 72.8298 113.562 72.5429 114.938C72.0735 117.2 71.9953 119.391 70.0003 120.929C73.5078 118.895 77.0218 116.868 80.5293 114.834L79.9686 115.114C77.7064 116.248 75.5354 117.617 73.3513 118.889C72.2886 119.508 71.1934 120.101 70.1568 120.766C70.0655 120.825 69.1071 121.386 69.6417 121.118H69.6352Z" fill="#FFA45E"/>
<path d="M94.3965 101.515V164.474C94.3965 164.024 99.2405 161.749 99.7881 161.429C100.421 161.064 105.121 158.991 105.121 158.28V95.321C105.121 95.7709 100.277 98.0462 99.7295 98.3657C99.0971 98.7308 94.3965 100.804 94.3965 101.515Z" fill="#FFA45E"/>
<path d="M81.7028 161.24C81.0834 162.152 80.0338 162.407 79.4014 163.202L84.7669 160.105C82.3482 157.908 80.4314 155.313 78.958 152.399C77.628 149.772 75.9134 146.525 76.4219 143.526C77.276 138.493 79.3753 134.672 82.9415 131.1L77.5759 134.196C81.8136 136.798 85.295 142.848 86.2012 147.718C87.1074 152.588 83.6912 157.093 81.7093 161.24C82.4329 159.727 86.3251 159.701 87.0749 158.143C89.0698 153.977 92.4535 149.537 91.5668 144.621C90.6932 139.758 87.1661 133.688 82.9415 131.1C82.5568 130.865 78.0127 133.76 77.5759 134.196C73.9967 137.776 71.93 141.59 71.0563 146.623C70.5609 149.472 72.1386 152.503 73.3643 155.02C74.8703 158.117 76.8522 160.881 79.4014 163.202C79.5709 163.358 84.441 160.509 84.7669 160.105C85.4124 159.297 86.4359 159.075 87.0683 158.143C86.0382 159.662 82.7589 159.688 81.7028 161.24Z" fill="#FFA45E"/>
<path d="M46.5954 126.999L47.1821 126.523L41.8166 129.62C44.8221 128.472 47.6255 132.775 47.9906 135.305C48.1405 136.341 48.0753 137.417 48.0753 138.46C48.1014 143.141 48.121 147.822 48.147 152.497C48.1601 155.333 47.808 158.456 48.2188 161.285C48.6295 164.115 50.8396 162.315 52.4173 161.429C54.9795 159.988 57.4635 158.462 59.9278 156.871C58.6891 157.673 56.3225 158.827 54.7448 159.844C53.8125 160.444 52.8411 161.011 51.9349 161.657C55.8988 159.629 56.9158 158.971 54.9795 159.681L54.4319 159.76C53.6691 159.003 53.5843 158.417 53.5452 157.191C53.5126 156.33 53.5452 155.463 53.5387 154.603C53.5191 150.026 53.4931 145.449 53.4735 140.866C53.4605 137.867 53.9559 134.333 53.1866 131.393C52.5477 128.948 49.8617 125.539 47.0844 126.575C45.1155 127.305 42.8727 128.772 41.2363 130.096C42.8141 128.818 45.0111 128.283 46.6019 126.999H46.5954Z" fill="#FFA45E"/>
<path d="M55.7484 126.96C55.9244 125.617 55.9179 123.4 57.2479 122.592L52.2409 125.46C56.5699 124.267 59.3276 128.759 63.6761 128.472C64.9866 128.388 66.0623 127.508 67.1837 126.862C67.6857 126.569 70.0262 125.656 70.0392 124.952C70.0262 125.969 64.6932 126.953 64.6736 128.049C64.7258 128.218 64.6606 128.329 64.4846 128.381C66.2709 127.351 68.0573 126.314 69.8501 125.284C65.2734 126.256 61.8311 120.629 57.5021 122.409C55.8397 123.094 54.0924 124.241 52.5995 125.232C50.8001 126.425 50.6566 127.97 50.3828 130.05C50.4219 129.744 52.7559 128.72 53.0819 128.531C53.46 128.309 55.6897 127.403 55.7484 126.953V126.96Z" fill="#FFA45E"/>
<path d="M35.6748 161.383C35.1011 162.185 34.1818 162.518 33.5364 163.215L38.902 160.118C36.731 158.13 34.9902 155.809 33.6407 153.195C32.3759 150.743 30.7134 147.647 31.1176 144.83C31.7892 140.103 33.895 136.394 37.2134 133.062L31.8478 136.159C35.7856 138.584 38.7781 143.963 39.7756 148.429C40.8252 153.116 37.5915 157.406 35.6813 161.383C36.405 159.871 40.2971 159.845 41.0469 158.286C42.9506 154.323 46.2104 150 45.1412 145.332C44.072 140.664 41.1642 135.501 37.2134 133.062C36.8288 132.828 32.2846 135.722 31.8478 136.159C28.5359 139.491 26.4301 143.2 25.7521 147.927C25.3739 150.6 26.8865 153.475 28.0469 155.822C29.4291 158.619 31.2415 161.103 33.5429 163.215C33.732 163.385 38.5434 160.51 38.9085 160.118C39.5865 159.388 40.4275 159.154 41.0469 158.286C39.9581 159.799 36.7896 159.838 35.6813 161.383H35.6748Z" fill="#FFA45E"/>
<path d="M21.0387 133.062C21.0387 126.96 21.0322 120.864 21.0256 114.762C21.0256 113.354 21.7819 109.794 19.9564 109.99C18.5743 110.14 15.542 112.386 14.4142 113.24C15.3269 112.555 21.1825 109.225 18.2814 110.64C17.4729 111.031 14.7017 112.754 13.8737 113.099C12.12 113.843 10.3336 114.475 8.52769 115.062C6.5979 115.688 5.07233 117.539 3.16211 118.159C9.21224 116.19 14.7082 113.262 20.1064 109.931C18.3461 110.941 16.1744 112.229 14.4142 113.24C16.0962 113.201 15.6666 122.768 15.6731 124.15C15.6731 128.153 15.6731 132.156 15.6796 136.159C15.6796 135.168 21.0452 134.131 21.0452 133.062H21.0387Z" fill="#FFA45E"/>
<path d="M15.6733 143.461C16.0124 148.664 15.8689 153.912 15.908 159.114C15.9211 161.338 15.6538 163.776 18.6137 162.368C21.7691 160.862 24.7485 158.841 27.6628 156.924C26.4306 157.732 24.0509 158.867 22.4797 159.897C21.6322 160.451 17.1794 163.222 21.5018 160.659C25.5178 158.28 22.8514 160.184 21.9647 159.812C21.078 159.44 21.3127 157.889 21.2867 157.08C21.2345 155.548 21.2606 154.016 21.2475 152.484C21.2149 148.448 21.3062 144.393 21.0454 140.358C21.1041 141.231 15.6212 142.503 15.6799 143.454L15.6733 143.461Z" fill="#FFA45E"/>
<path d="M60.938 136.752L61.5248 136.27L56.1592 139.367C60.0318 137.861 62.3332 143.917 62.4114 146.792C62.5092 150.293 62.4701 153.807 62.4962 157.315C62.5092 159.016 61.7921 163.365 64.2565 162.791C65.782 162.433 67.4119 161.161 68.7289 160.392C70.6195 159.297 72.432 158.136 74.2574 156.93C73.0252 157.739 70.6456 158.873 69.0744 159.903C68.2921 160.418 67.4967 160.907 66.7339 161.442C65.6712 162.133 66.121 161.872 68.0965 160.666C70.0784 159.655 70.5869 159.329 69.622 159.688C68.6246 159.401 68.4942 160.144 67.9922 158.893C67.6988 158.162 67.8813 157.015 67.8748 156.207C67.8487 152.79 67.8161 149.368 67.79 145.951C67.764 142.763 67.777 139.992 65.2605 137.574C63.5458 135.931 62.3984 135.807 60.4491 136.863C58.7996 137.75 57.0198 138.656 55.5659 139.856C57.1306 138.565 59.3538 138.056 60.9315 136.759L60.938 136.752Z" fill="#FFA45E"/>
</g>
<defs>
<clipPath id="clip0_700_1052">
<rect width="109" height="164" fill="white"/>
</clipPath>
</defs>
</svg>
