<svg width="109" height="164" viewBox="0 0 109 164" fill="none" xmlns="http://www.w3.org/2000/svg">
<path d="M34.1756 66.0937C34.1756 72.1894 34.5342 77.6593 32.6305 83.4682C29.8597 91.9045 24.7092 99.3172 17.4399 104.468C20.2629 102.473 23.6335 100.98 26.6194 99.2194C11.5398 108.099 24.468 100.354 29.5663 99.3955C32.7478 98.7957 36.0989 99.0173 39.2804 99.4802C48.4599 100.81 56.7723 105.315 66.1018 105.98C69.6875 106.234 71.5456 105.504 74.6423 103.737C76.9372 102.427 79.4603 101.247 81.5987 99.6888C82.4332 99.0825 82.7266 99.0499 82.4853 98.0589C82.3028 97.2962 81.0054 96.5008 80.5425 95.8814C80.0536 95.2099 79.6167 94.4862 79.356 93.6909C78.867 92.1979 79.0104 90.6853 79.6559 89.2641C80.4512 87.5103 81.9964 85.9196 83.6328 84.909C84.3173 84.4853 82.7135 85.3589 83.0656 85.1829C81.9703 85.7305 80.9076 86.402 79.8449 87.0083C77.6413 88.2731 75.4247 89.5184 73.2667 90.8549C71.2522 92.1001 69.2963 94.0038 68.5987 96.3182C67.9729 98.3719 68.5531 100.38 69.8114 102.075C70.3655 102.825 72.7191 104.363 71.5782 105.433L73.1298 104.487L72.856 104.65C75.9137 102.903 78.9778 101.149 82.0355 99.402C77.5566 101.195 70.7697 99.089 66.4082 97.8568C59.9604 96.0314 53.8972 93.4953 47.1364 92.9737C36.6334 92.1653 27.6495 98.424 18.9786 103.529L28.1581 98.2806C35.4273 93.1302 40.5778 85.7175 43.3486 77.2812C45.2523 71.4788 44.8937 66.0024 44.8937 59.9066C44.8937 60.3565 40.0497 62.6318 39.502 62.9512C38.8697 63.3163 34.1691 65.3895 34.1691 66.1002L34.1756 66.0937Z" fill="#FFA45E"/>
<path d="M17.9809 73.9628C17.6158 80.1825 17.7331 86.4673 15.6208 92.4066C12.6675 100.686 6.79988 107.369 0 112.767C3.18805 110.238 7.52354 109.123 10.7246 106.574C17.5245 101.169 23.3986 94.4929 26.3454 86.2131C28.4643 80.2738 28.3404 73.9889 28.7055 67.7693C28.6729 68.2908 23.9071 70.4684 23.3139 70.8139C22.6293 71.2116 18.0265 73.174 17.9809 73.9628Z" fill="#FFA45E"/>
<path d="M60.1817 79.4128C62.5678 77.7112 65.9775 76.0291 67.477 73.3692C68.8396 70.9504 68.4093 67.5929 68.4484 64.9459C68.4876 62.299 68.5658 59.6651 68.6179 57.0247C68.6636 54.5603 67.6465 49.0252 69.8567 47.5192C66.284 49.5859 62.7047 51.6461 59.132 53.7128C63.3176 52.8587 68.2072 53.5563 72.458 53.5563H90.7126C92.3099 53.5563 93.992 53.2368 94.4027 55.2774C94.657 56.5162 94.4027 58.0874 94.4027 59.3456V78.7608C94.4027 83.6048 94.4027 88.4489 94.4027 93.2929C94.4027 92.843 99.2467 90.5677 99.7944 90.2482C100.427 89.8831 105.127 87.8099 105.127 87.0993C105.127 80.1038 105.127 73.1149 105.127 66.1194C105.127 61.7318 105.127 57.3376 105.127 52.95C105.127 50.9354 105.844 47.8843 103.315 47.3693C100.635 46.8216 97.2909 47.3693 94.5592 47.3693H79.812C76.9043 47.3693 73.6575 46.9585 70.7629 47.3693C68.0442 47.7539 65.3517 50.0488 63.0372 51.3918C61.7724 52.122 59.4841 52.95 58.5127 54.1365C57.7368 55.0884 57.9715 56.3923 57.965 57.5397C57.9455 62.6967 57.7629 67.8471 57.7173 72.9975C57.6977 75.2794 57.8412 77.9263 56.5372 79.9213C54.9334 82.3596 51.7715 83.9699 49.457 85.6129C52.795 83.2332 56.8306 81.8054 60.1817 79.4193V79.4128Z" fill="#FFA45E"/>
<path d="M94.0643 34.5976C94.0643 37.2446 94.0643 39.8915 94.0643 42.5449L99.4299 39.4482C98.4129 38.0465 93.7057 37.6227 92.0367 37.8509C90.4786 38.066 84.7349 40.8173 83.5809 39.4482C83.3201 39.1352 78.4174 42.7862 78.2153 42.5449C79.3628 43.9075 85.1326 41.1628 86.6712 40.9477C88.3532 40.713 93.0342 41.1237 94.0643 42.5449C94.0122 42.4732 99.4299 39.8393 99.4299 39.4482C99.4299 36.8012 99.4299 34.1543 99.4299 31.5009C99.4299 32.4918 94.0643 33.5219 94.0643 34.5976Z" fill="#FFA45E"/>
</svg>
