<svg width="109" height="164" viewBox="0 0 109 164" fill="none" xmlns="http://www.w3.org/2000/svg">
<g clip-path="url(#clip0_700_1079)">
<path d="M33.1845 0.728787C31.1699 0.389771 29.9638 1.34814 28.2492 2.32607C25.674 3.79297 22.2121 5.12295 20.015 7.14401C19.0501 8.03067 17.8636 11.3165 18.9523 12.6074C19.2327 12.9399 20.1976 12.7443 20.7257 12.829C21.7492 12.992 22.7141 13.4223 23.5877 13.97C24.181 14.3481 25.2567 15.7563 25.8565 15.8737C26.4563 15.991 27.9754 15.0848 28.5165 14.8827C29.9508 14.3481 31.4764 13.5527 32.9693 13.2267C34.4623 12.9008 34.1689 12.5683 34.1689 14.3416C34.1689 15.8411 34.1689 17.3471 34.1689 18.8466C34.1689 23.332 34.1689 27.8175 34.1689 32.3029C34.1689 41.2738 34.1689 50.2512 34.1689 59.2221C34.1689 58.7722 39.0129 56.4969 39.5606 56.1774C40.193 55.8123 44.8936 53.7391 44.8936 53.0285C44.8936 38.164 44.8936 23.2994 44.8936 8.43488C44.8936 8.20017 45.05 6.69416 44.8936 6.58985C44.8414 6.55725 44.4698 6.7724 44.4307 6.75936C43.7461 6.58333 41.6208 7.80248 41.0079 8.03067C39.8605 8.45444 37.3961 9.88873 36.3269 9.47148C35.1795 9.02164 34.2602 7.59386 32.9954 7.07881C32.1609 6.7398 30.0355 6.84411 29.6705 6.4073C28.686 5.24031 29.5987 1.67412 30.7397 0.96349C27.2256 2.98455 23.7116 5.01212 20.1976 7.03318C20.9864 6.74632 21.6319 6.78543 22.4533 6.92235C23.5486 7.10489 26.8736 4.44492 27.845 3.87772C29.1098 3.14753 30.3746 2.41735 31.6263 1.67412C31.9001 1.51113 32.9237 0.68315 33.178 0.728787H33.1845Z" fill="#FFA45E"/>
<path d="M2.79688 22.6538C4.61583 22.7908 6.0762 23.534 7.50398 24.6684C7.87559 24.9618 9.10779 26.5851 9.58371 26.6699C10.7963 26.885 13.515 25.2551 14.6885 24.8183C15.2818 24.5967 16.8986 23.6057 17.518 23.7687C18.2286 23.9512 17.7397 23.5275 17.9809 24.4793C18.4438 26.2917 17.9809 28.88 17.9809 30.7381V66.6411C17.9809 66.1913 22.8249 63.916 23.3725 63.5965C24.0049 63.2314 28.7055 61.1582 28.7055 60.4476V24.538C28.7055 22.6212 29.1162 20.1569 28.7055 18.2792C28.4773 17.2491 28.9598 17.7577 28.2426 17.5686C27.6624 17.4187 26.0195 18.3966 25.4132 18.6183C24.3244 19.0225 21.4623 20.7436 20.3409 20.5024C19.8194 20.3916 18.9523 19.0616 18.522 18.6965C17.0421 17.4578 15.4709 16.5972 13.5215 16.4472C12.2567 16.3495 9.23166 18.853 8.12986 19.4919C6.86507 20.2221 5.60028 20.9522 4.34852 21.6955C4.04211 21.878 3.10329 22.6669 2.79688 22.6408V22.6538Z" fill="#FFA45E"/>
<path d="M75.5874 14.3155C81.4419 14.7523 81.0834 20.307 81.0834 24.5708V31.3967C81.0834 32.0291 80.8161 33.2874 81.0834 33.8546C81.468 34.6891 81.3246 34.4153 82.7719 34.2914C83.4369 34.2327 88.0332 31.7292 88.1375 31.1946C88.4309 29.643 90.6149 28.5346 91.8015 27.6089C90.1912 28.8606 88.0528 29.4474 86.4359 30.7056C85.2168 31.6575 83.0784 32.6811 82.7719 34.2914L88.1375 31.1946C85.81 31.3967 86.449 30.6665 86.449 28.5607V21.4805C86.449 17.2167 86.814 11.6556 80.953 11.2253C79.2253 11.0949 77.2629 14.4459 75.5874 14.322V14.3155Z" fill="#FFA45E"/>
<path d="M77.2368 5.25976L81.6245 7.76979C81.6766 7.80238 82.5046 7.28734 82.4198 7.33298C83.0588 6.9744 83.6912 6.60931 84.3236 6.24421C84.9559 5.87912 85.5883 5.51403 86.2142 5.14241C86.3055 5.09026 86.9379 4.64041 86.99 4.67301L82.6024 2.16298C82.5502 2.13039 81.7223 2.64543 81.807 2.59979C81.1681 2.95837 80.5357 3.32346 79.9033 3.68856C79.2709 4.05365 78.6385 4.41874 78.0126 4.79036C77.9214 4.84251 77.289 5.29236 77.2368 5.25976Z" fill="#FFA45E"/>
<path d="M109.339 1.01539C107.618 1.77818 106.295 1.06103 104.886 0.0113819C104.599 -0.203763 99.9185 2.69743 99.5208 3.10816C97.7214 4.96623 94.2139 7.33282 94.0835 10.0319C93.9792 12.1638 94.0835 14.3218 94.0835 16.4537V28.6126C94.077 27.6216 99.436 26.5915 99.4425 25.5158C99.4425 21.4607 99.4425 17.412 99.449 13.3569C99.449 11.2706 99.3513 9.15177 99.449 7.07204C99.586 4.22952 103.009 1.9542 104.886 0.0113819L99.5208 3.10816C100.955 4.17737 102.259 4.86844 103.974 4.11217C105.851 3.27767 107.468 1.84337 109.339 1.01539Z" fill="#FFA45E"/>
<path d="M88.2554 17.0015C91.9193 16.8776 95.5768 16.8189 99.2408 16.832C99.9449 16.832 101.327 15.6584 101.94 15.3129C102.553 14.9674 103.896 13.7352 104.606 13.7352C100.942 13.7221 97.2784 13.7808 93.6209 13.9047C92.8842 13.9308 91.5608 15.0586 90.9219 15.4237C90.2829 15.7888 88.9986 16.9754 88.2554 17.0015Z" fill="#FFA45E"/>
<path d="M60.41 14.1066L60.5404 13.9045L55.1748 17.0013C57.7761 17.738 58.2064 20.398 58.2064 22.6211V45.9872C58.2064 44.9962 63.572 43.9661 63.572 42.8904V19.7134C63.572 17.4316 63.2525 14.6803 60.5404 13.911C59.9536 13.7415 55.5399 16.4602 55.1748 17.0078L55.0444 17.2099C56.0615 15.6909 59.3669 15.6713 60.41 14.1131V14.1066Z" fill="#FFA45E"/>
<path d="M63.2002 15.9387C69.8371 16.4342 68.6962 23.6644 68.6962 28.2737V36.7752C68.6962 37.551 68.4419 38.7832 68.6962 39.5003C69.0352 40.4718 68.8657 40.1784 70.3847 40.048C71.0497 39.9893 75.646 37.4858 75.7503 36.9512C76.0437 35.3996 78.2277 34.2912 79.4143 33.3655C77.804 34.6172 75.6655 35.204 74.0487 36.4622C72.8295 37.4141 70.6911 38.4377 70.3847 40.048L75.7503 36.9512C74.2117 37.0881 74.3942 37.3619 74.0617 36.4036C73.8205 35.719 74.0617 34.4151 74.0617 33.6784V25.1769C74.0617 20.5676 75.2157 13.3375 68.5658 12.842C66.8381 12.7116 64.8757 16.0626 63.2002 15.9387Z" fill="#FFA45E"/>
</g>
<defs>
<clipPath id="clip0_700_1079">
<rect width="109" height="164" fill="white"/>
</clipPath>
</defs>
</svg>
