<svg width="100" height="100" viewBox="0 0 100 100" fill="none" xmlns="http://www.w3.org/2000/svg">
<path d="M73.7547 44.5V74.1471ZM25.8874 74.1471V87.1176H73.7547V74.1471M25.8874 74.1471H13V24.1176L38.7747 13H60.8673L86.642 24.1176V74.1471H73.7547M25.8874 74.1471V44.5Z" fill="#FFA45E"/>
<path d="M73.7547 44.5V74.1471M73.7547 74.1471V87.1176H25.8874V74.1471M73.7547 74.1471H86.642V24.1176L60.8673 13H38.7747L13 24.1176V74.1471H25.8874M25.8874 74.1471V44.5" stroke="#271E17" stroke-width="4" stroke-linecap="round" stroke-linejoin="round"/>
<path d="M60.8675 13L49.8212 38.9412ZM49.8212 38.9412L38.7749 13ZM49.8212 38.9412V74.1471V87.1176" fill="#271E17"/>
<path d="M49.8212 38.9412L38.7749 13V35.3303L49.8212 74.1471V38.9412Z" fill="#271E17"/>
<path d="M60.8675 13L49.8212 38.9412V74.1471L60.8675 35.3303V13Z" fill="#271E17"/>
<path d="M49.8212 38.9412L60.8675 13V35.3303L49.8212 74.1471M49.8212 38.9412L38.7749 13V35.3303L49.8212 74.1471M49.8212 38.9412V74.1471M49.8212 74.1471V87.1176" stroke="#271E17" stroke-width="4" stroke-linecap="round" stroke-linejoin="round"/>
<path fill-rule="evenodd" clip-rule="evenodd" d="M38.7748 13L31.4106 27.8235L38.7748 38.0147L35.0927 48.2059L49.8211 74.1471L38.7748 13ZM70.0727 27.8236L60.8675 13L49.8212 74.1471L64.5496 48.2059L60.8675 38.0147L70.0727 27.8236Z" fill="#271E17"/>
<path d="M31.4106 27.8235L29.6195 26.9337C29.289 27.599 29.3545 28.3928 29.7896 28.9949L31.4106 27.8235ZM38.7748 13L40.743 12.6445C40.5897 11.796 39.9099 11.1412 39.0563 11.0199C38.2026 10.8986 37.3673 11.338 36.9837 12.1102L38.7748 13ZM38.7748 38.0147L40.6558 38.6943C40.8806 38.0723 40.7833 37.3794 40.3959 36.8433L38.7748 38.0147ZM35.0927 48.2059L33.2118 47.5263C33.0131 48.076 33.0649 48.6851 33.3535 49.1933L35.0927 48.2059ZM49.8211 74.1471L48.0819 75.1345C48.5633 75.9823 49.5857 76.3595 50.5023 76.0275C51.4189 75.6954 51.9626 74.7509 51.7893 73.7915L49.8211 74.1471ZM60.8675 13L62.5665 11.945C62.13 11.242 61.3056 10.8804 60.4927 11.0355C59.6799 11.1905 59.0464 11.8302 58.8993 12.6445L60.8675 13ZM70.0727 27.8236L71.5569 29.1642C72.1544 28.5027 72.242 27.5257 71.7718 26.7685L70.0727 27.8236ZM49.8212 74.1471L47.853 73.7916C47.6797 74.7509 48.2234 75.6955 49.14 76.0275C50.0566 76.3596 51.0791 75.9824 51.5604 75.1346L49.8212 74.1471ZM64.5496 48.2059L66.2888 49.1934C66.5774 48.6851 66.6292 48.076 66.4306 47.5263L64.5496 48.2059ZM60.8675 38.0147L59.3833 36.6742C58.888 37.2225 58.7354 37.9994 58.9865 38.6944L60.8675 38.0147ZM33.2018 28.7134L40.566 13.8898L36.9837 12.1102L29.6195 26.9337L33.2018 28.7134ZM40.3959 36.8433L33.0317 26.6521L29.7896 28.9949L37.1538 39.1861L40.3959 36.8433ZM36.9737 48.8855L40.6558 38.6943L36.8939 37.3351L33.2118 47.5263L36.9737 48.8855ZM51.5604 73.1596L36.832 47.2184L33.3535 49.1933L48.0819 75.1345L51.5604 73.1596ZM36.8067 13.3555L47.853 74.5026L51.7893 73.7915L40.743 12.6445L36.8067 13.3555ZM59.1684 14.0551L68.3737 28.8787L71.7718 26.7685L62.5665 11.945L59.1684 14.0551ZM51.7893 74.5027L62.8356 13.3556L58.8993 12.6445L47.853 73.7916L51.7893 74.5027ZM62.8103 47.2185L48.0819 73.1596L51.5604 75.1346L66.2888 49.1934L62.8103 47.2185ZM58.9865 38.6944L62.6686 48.8855L66.4306 47.5263L62.7485 37.3351L58.9865 38.6944ZM68.5885 26.483L59.3833 36.6742L62.3516 39.3553L71.5569 29.1642L68.5885 26.483Z" fill="#271E17"/>
</svg>
