<svg width="72" height="72" viewBox="0 0 72 72" fill="none" xmlns="http://www.w3.org/2000/svg">
<path d="M36 66C52.5685 66 66 52.5685 66 36C66 19.4315 52.5685 6 36 6C19.4315 6 6 19.4315 6 36C6 52.5685 19.4315 66 36 66Z" fill="#FFA45E"/>
<path fill-rule="evenodd" clip-rule="evenodd" d="M19.5795 35.6834C28.3252 31.8731 34.1569 29.3611 37.0749 28.1474C45.4062 24.6821 47.1374 24.0801 48.2657 24.0603C48.5139 24.0559 49.0688 24.1174 49.4282 24.4091C49.7317 24.6553 49.8152 24.988 49.8552 25.2215C49.8952 25.455 49.9449 25.9869 49.9054 26.4025C49.4539 31.1462 47.5003 42.6579 46.5065 47.971C46.086 50.2191 45.2579 50.9729 44.4563 51.0467C42.7141 51.207 41.3912 49.8953 39.7038 48.7893C37.0635 47.0584 35.5718 45.981 33.0088 44.2921C30.0469 42.3402 31.967 41.2674 33.655 39.5142C34.0968 39.0553 41.7727 32.0734 41.9213 31.4401C41.9399 31.3609 41.9571 31.0656 41.7817 30.9097C41.6063 30.7538 41.3474 30.8071 41.1606 30.8495C40.8958 30.9096 36.6777 33.6976 28.5064 39.2134C27.3091 40.0356 26.2247 40.4362 25.253 40.4152C24.1819 40.392 22.1214 39.8095 20.5897 39.3116C18.7109 38.7009 17.2177 38.378 17.3477 37.3408C17.4155 36.8006 18.1594 36.2481 19.5795 35.6834Z" fill="#271E17"/>
</svg>
