<svg width="758" height="151" viewBox="0 0 758 151" fill="none" xmlns="http://www.w3.org/2000/svg">
<path d="M4.36011 22.6249C12.3116 18.6149 21.1217 19.131 29.6704 19.7663C39.8618 20.5206 50.0157 21.3147 60.2071 22.1087C68.1959 22.7043 76.4833 23.3792 84.2481 20.9574C88.0185 19.806 91.453 17.7811 94.8874 15.7562C100.487 12.4212 106.087 9.08613 111.425 5.31434C112.657 4.44087 109.708 6.029 110.342 5.75107C108.364 6.70395 106.385 8.05385 104.481 9.20524C100.487 11.6271 96.4553 14.0093 92.6476 16.7091C107.617 8.56999 111.5 5.98929 104.332 8.92732C103.436 9.20524 102.578 9.48316 101.682 9.68168C100.338 9.9993 98.9565 10.2375 97.5752 10.436C94.2901 10.8728 90.9304 10.8728 87.6079 10.7934C79.9924 10.5551 72.3769 9.76109 64.7988 9.16554C51.3223 8.13326 35.7554 4.67909 23.0255 11.111C18.8818 13.2153 14.9621 15.796 11.005 18.2575C9.10113 19.4486 7.04793 20.5206 5.25605 21.9102C5.10673 22.0293 3.38951 23.1807 4.36011 22.7043V22.6249Z" fill="#FFA45E"/>
<path d="M36.8012 34.9733C29.9323 61.6934 46.5818 97.7835 25.3779 119.779C24.4446 120.772 26.8338 119.541 26.6098 119.62C28.6257 118.866 30.7162 117.397 32.5454 116.325C36.3532 114.101 41.0942 111.878 44.2673 108.583C66.0312 86.0314 49.195 50.4178 56.2132 23.0624C56.2132 22.9035 52.6294 24.6505 53.1521 24.4123C50.8002 25.6828 48.4857 27.0327 46.2085 28.462C43.9313 29.8913 41.6542 31.2809 39.4517 32.8293C38.7797 33.3057 37.0625 34.1395 36.8385 34.9733H36.8012Z" fill="#FFA45E"/>
<path d="M59.8349 22.7836C52.966 49.5038 69.6155 85.5938 48.4116 107.589C47.4783 108.582 49.8675 107.351 49.6435 107.431C51.6594 106.676 53.7499 105.207 55.5791 104.135C59.3869 101.912 64.1279 99.6884 67.301 96.3931C89.0649 73.8417 72.2287 38.1884 79.2469 10.833C79.2842 10.6742 75.6631 12.4211 76.1858 12.1432C73.8339 13.4137 71.5194 14.7636 69.2422 16.1929C66.965 17.6222 64.6879 19.0118 62.4853 20.5602C61.8134 21.0367 60.0962 21.8704 59.8722 22.7042L59.8349 22.7836Z" fill="#FFA45E"/>
<path d="M54.5703 25.1663C48.0374 26.7147 42.2138 30.0497 36.4276 33.5039C29.596 37.5933 22.4285 41.8018 16.6422 47.5588C7.30949 56.8493 2.1205 69.6337 0.851254 83.093C-0.417994 96.5524 1.82186 113.188 8.31742 125.694C15.1863 138.955 27.3562 143.323 40.8326 144.593C48.0748 145.268 55.3916 145.109 62.5591 143.68C71.1826 141.973 78.7981 137.923 86.3762 133.357C88.8774 131.848 91.3785 130.34 93.8051 128.712C94.3277 128.394 97.7248 126.528 98.0981 125.655C98.4341 124.821 97.6501 125.615 96.9035 125.853C94.8503 126.568 92.8344 128.077 90.9679 129.188C95.4103 126.528 88.952 129.744 87.9068 130.101C86.4135 130.618 84.883 131.054 83.3524 131.412C79.3953 132.365 75.3263 132.841 71.2572 133.039C64.5003 133.317 57.5941 132.762 50.9866 131.332C37.1742 128.315 28.4761 118.865 23.9964 104.89C19.5167 90.9145 18.2101 73.9216 22.3538 59.1521C24.1084 52.879 26.9082 46.9632 30.7159 41.7621C32.8811 38.7844 35.3823 36.4419 37.9581 33.9406C40.6833 31.7967 39.4887 32.4716 34.3744 35.9258C29.036 38.8638 27.8415 39.6976 30.7906 38.4271C32.5078 37.9506 34.1877 37.2757 35.9422 36.8787C40.086 35.8861 44.4537 32.1937 48.0748 29.8909C49.904 28.7395 52.1812 27.6278 53.7491 26.0794C53.9357 25.8809 55.6156 24.8089 54.4957 25.0869L54.5703 25.1663Z" fill="#FFA45E"/>
<path d="M106.559 24.8878V150.072C106.559 149.119 115.257 144.791 116.265 144.156C118.542 142.766 120.819 141.337 123.134 139.947C123.507 139.709 125.971 138.478 125.971 138.2V12.9769C125.971 13.9298 117.273 18.2574 116.265 18.8927C113.988 20.2823 111.711 21.7116 109.396 23.1012C109.023 23.3394 106.559 24.5702 106.559 24.8481V24.8878Z" fill="#FFA45E"/>
<path d="M135.402 58.3673C136.037 56.3027 137.381 54.7543 138.911 53.4044L138.613 53.6823C140.33 52.2133 142.196 50.9825 144.026 49.6723C146.116 48.2033 148.207 46.6946 150.26 45.2255C151.492 44.3521 148.543 46.0196 149.177 45.6623C147.199 46.774 145.258 47.9253 143.316 49.1164C139.322 51.5383 135.29 53.8808 131.483 56.5806C128.309 58.8437 125.174 61.0671 122.001 63.3301C119.574 65.0771 116.961 67.1416 115.99 70.2385C116.289 70.1194 116.588 70.0002 116.886 69.8017C117.558 69.4444 118.267 69.0474 118.939 68.6503C121.254 67.3004 123.531 65.9108 125.846 64.5212C128.16 63.1316 130.4 61.7023 132.677 60.2333L134.17 59.2407C134.618 58.9628 135.029 58.6849 135.44 58.3275L135.402 58.3673Z" fill="#FFA45E"/>
<path d="M132.503 56.3718C146.764 61.4141 150.273 78.2482 150.46 92.3825C150.646 110.527 149.788 128.79 149.377 146.934C149.377 145.982 158.075 141.694 159.12 141.058C161.397 139.669 163.675 138.24 165.952 136.81C166.549 136.453 168.49 135.619 168.752 135.024C169.498 133.158 170.394 131.45 171.589 129.902C172.111 129.227 172.671 128.552 173.269 127.956C173.567 127.639 173.866 127.361 174.202 127.083C179.354 122.517 174.202 125.574 158.784 136.254C162.816 133.912 166.773 131.45 170.73 128.989C172.671 127.798 174.613 126.646 176.516 125.376C176.703 125.257 178.42 124.145 177.45 124.701C170.768 128.592 164.085 132.522 157.664 136.81C153.894 139.351 151.132 142.607 149.34 146.974L168.752 135.063C169.125 116.919 170.021 98.6556 169.834 80.5113C169.685 66.377 166.139 49.5429 151.878 44.5006C151.617 44.4212 148.817 46.3269 149.004 46.2078C146.689 47.5974 144.412 48.987 142.135 50.3766C139.858 51.7662 137.58 53.1956 135.303 54.6249C134.893 54.9028 132.839 56.5306 132.503 56.4115V56.3718Z" fill="#FFA45E"/>
<path d="M225.345 43.9057C217.02 48.4318 208.584 53.4344 200.856 58.9928C195.63 62.7646 191.038 67.529 187.492 73.1271C179.69 85.4748 178.607 100.086 183.535 113.902C186.185 121.406 190.105 128.354 194.361 134.945C197.758 140.225 201.901 146.181 208.21 147.332C215.191 148.603 221.799 143.005 227.398 139.55C233.558 135.739 241.36 132.563 243.712 124.701C243.637 124.94 240.614 126.528 240.838 126.369C238.523 127.759 236.246 129.148 233.969 130.538C231.691 131.927 229.414 133.357 227.137 134.786C226.614 135.104 224.487 136.017 224.337 136.573C223.665 138.836 222.695 140.821 221.127 142.528C220.754 142.965 220.343 143.362 219.932 143.719C214.893 148.166 219.932 145.069 235.126 134.468C234.043 134.786 233.11 135.183 231.99 135.382C227.361 136.136 223.18 134.19 219.82 130.855C216.087 127.163 213.325 122.319 210.637 117.793C207.538 112.552 204.739 107.073 202.76 101.237C199.214 90.795 198.84 79.6781 202.835 69.3553C204.739 64.4322 207.501 59.8663 210.823 55.8563C212.503 53.8314 214.333 51.9654 216.274 50.2582C217.095 49.5435 217.916 48.8686 218.775 48.1936C229.004 40.2927 198.168 60.0648 206.754 55.3799C212.765 52.1242 220.716 46.407 225.42 43.866L225.345 43.9057Z" fill="#FFA45E"/>
<path d="M204.739 55.2998C204.365 61.1362 205.224 66.9328 207.501 72.253C209.517 77.0174 212.616 81.6627 218.066 81.4245C218.252 81.4245 219.895 81.1465 219.895 81.1465C219.895 81.1465 218.626 82.2979 218.514 82.417C217.357 83.4493 216.199 84.5213 215.079 85.5933C212.802 87.6975 210.525 89.8415 208.285 92.0252C203.768 96.3528 199.363 100.76 194.958 105.207C195.593 104.571 197.198 103.857 197.795 103.46C200.072 102.07 202.387 100.641 204.664 99.2511C206.941 97.8615 209.218 96.4322 211.533 95.0426C212.392 94.5265 213.661 94.0103 214.37 93.2957C218.738 88.8092 223.18 84.4419 227.697 80.1143C229.825 78.0497 231.99 76.0248 234.155 74C235.313 72.928 236.433 71.8957 237.59 70.8237C237.776 70.6252 239.344 69.315 239.307 69.2356C239.307 69.2356 237.59 69.5135 237.478 69.5135C232.028 69.7121 228.966 65.0668 226.913 60.3421C224.636 55.0219 223.777 49.1856 224.151 43.3889C224.151 43.5477 220.978 45.3344 221.314 45.1359C219.036 46.5255 216.722 47.9548 214.445 49.3444C212.168 50.734 209.89 52.1633 207.576 53.5529C207.203 53.7911 204.776 54.9822 204.739 55.2998Z" fill="#FFA45E"/>
<path d="M279.111 29.4537C279.111 67.9656 279.111 106.478 279.111 145.029C279.111 144.553 288.108 139.987 289.004 139.431C291.281 138.042 293.558 136.612 295.798 135.104C296.246 134.786 298.486 133.635 298.486 133.079C298.486 94.5667 298.486 56.0547 298.486 17.5031C298.486 17.9795 289.489 22.5453 288.593 23.1012C286.316 24.4908 284.039 25.9201 281.799 27.4288C281.351 27.7464 279.111 28.8978 279.111 29.4537Z" fill="#FFA45E"/>
<path d="M248.424 24.5304C248.275 26.2377 248.163 28.3816 249.619 29.5727C250.253 30.0889 250.925 30.1286 251.672 29.9698C253.464 29.533 255.48 28.1037 256.973 27.2302C260.93 24.9275 264.887 22.5453 268.695 19.9646C269.74 19.2499 270.972 18.5353 271.831 17.5427C272.951 16.2722 273.175 14.7238 273.884 13.2548L273.585 13.5724L273.884 13.2151L262.125 20.838L262.461 20.6395L255.106 24.6098C256.45 24.3716 257.384 25.8009 258.242 26.6744C259.399 27.8258 260.818 28.4213 262.311 29.0169C265.708 30.3271 269.329 31.7167 273.025 31.3991C274.332 31.28 275.601 30.9623 276.833 30.4462C281.126 28.6198 285.12 25.92 289.078 23.4585C292.176 21.5527 295.984 19.5676 298.597 16.8677C299.642 15.7958 300.389 14.565 300.799 13.096C300.799 13.096 297.328 14.7635 297.776 14.5253C295.424 15.8355 293.147 17.1854 290.832 18.6147C288.518 20.044 286.278 21.4336 284.038 22.9423C283.403 23.379 281.574 24.2128 281.35 25.0069C281.014 26.2774 280.417 27.3096 279.595 28.3022L279.894 27.9846C274.145 34.0195 301.322 16.7486 294.938 18.972C294.416 19.1705 293.893 19.3293 293.371 19.4484L293.781 19.369C290.683 19.9646 287.584 19.2499 284.598 18.2573C281.91 17.3442 279.147 16.5104 277.132 14.3267C276.385 13.493 275.601 12.6195 274.481 12.7783C272.839 13.0165 270.86 14.5253 269.479 15.359C266.828 16.8677 264.215 18.4956 261.639 20.1234C259.511 21.4733 256.898 22.7835 255.032 24.5701C254.546 25.0466 254.322 25.4833 254.099 26.1186C253.651 27.3096 253.315 28.4213 252.531 29.3742L252.829 29.0566L253.128 28.8581L269.889 18.575L270.188 18.3368L270.599 18.2573C267.724 18.4559 267.575 14.962 267.724 12.7386C267.724 12.6195 264.215 14.4459 264.7 14.1679C262.349 15.4781 260.071 16.828 257.757 18.2573C255.442 19.6867 253.203 21.0763 250.963 22.585C250.477 22.9423 248.35 24.0143 248.275 24.6495L248.424 24.5304Z" fill="#FFA45E"/>
<path d="M301.994 22.3861V141.495C301.994 140.781 310.841 136.334 311.812 135.738C314.089 134.349 316.366 132.919 318.643 131.45C319.054 131.173 321.406 129.981 321.406 129.584V10.4752C321.406 11.1899 312.558 15.6366 311.588 16.2322C309.31 17.6218 307.033 19.0511 304.756 20.5201C304.345 20.798 301.994 21.9891 301.994 22.3861Z" fill="#FFA45E"/>
<path d="M342.498 142.488H367.285C367.808 142.488 370.01 140.82 370.122 140.741C372.4 139.351 374.714 137.922 376.991 136.533C379.268 135.143 381.546 133.714 383.86 132.324L385.391 131.371C385.839 131.093 386.287 130.815 386.697 130.537H361.91C361.387 130.537 359.184 132.205 359.072 132.284C356.795 133.674 354.481 135.103 352.204 136.493C349.926 137.882 347.649 139.312 345.335 140.701L343.804 141.654C343.356 141.932 342.908 142.21 342.498 142.488Z" fill="#FFA45E"/>
<path d="M332.755 11.0321C319.614 17.9802 315.956 20.4021 321.854 18.2581C322.9 17.9008 323.945 17.7023 325.027 17.5831C326.745 17.3449 328.462 17.3052 330.142 17.5037C333.016 17.8214 335.741 18.7742 338.317 20.0844C343.917 22.9828 348.546 27.7471 352.466 32.7497C360.118 42.5961 365.233 54.6261 367.435 67.1723C369.638 79.7184 368.966 92.7808 365.009 104.811C360.38 118.826 350.972 130.26 345.111 143.64C345.111 143.64 348.508 142.013 348.135 142.211C350.487 140.941 352.802 139.551 355.079 138.122C357.356 136.692 359.633 135.303 361.873 133.754C362.62 133.238 364.15 132.524 364.523 131.69C371.168 116.483 382.032 103.739 386.026 87.2223C389.46 72.9689 388.564 57.6435 384.01 43.7872C379.456 29.9308 371.094 15.8362 358.998 8.76906C352.801 5.15608 345.671 4.36202 338.989 6.90302C330.179 10.2778 321.369 16.2332 313.903 22.1887C312.708 23.1416 315.695 21.7123 315.06 21.9505C317.001 21.2358 319.204 19.6477 320.958 18.6154C324.953 16.2332 329.059 13.8511 332.718 10.9527L332.755 11.0321Z" fill="#FFA45E"/>
<path d="M387.295 31.4784H399.689C400.025 31.399 400.323 31.2799 400.585 31.0814C401.294 30.7241 401.966 30.3667 402.638 29.9697C404.952 28.6595 407.267 27.2699 409.544 25.8406C411.821 24.4113 414.098 23.0217 416.338 21.5527L417.832 20.5601C418.28 20.2822 418.69 19.9645 419.063 19.5675H406.67C406.334 19.6469 406.035 19.766 405.774 19.9645C405.064 20.3219 404.392 20.6792 403.721 21.0762C401.406 22.3864 399.091 23.776 396.814 25.2053C394.537 26.6346 392.26 28.0243 390.02 29.4933L388.527 30.4858C388.079 30.7638 387.668 31.0814 387.295 31.4784Z" fill="#FFA45E"/>
<path d="M435.75 20.3216C434.033 62.5259 433.585 104.77 434.406 147.014C434.406 146.816 443.59 142.131 444.411 141.614C445.718 140.82 453.856 136.969 453.818 135.103C452.96 92.8591 453.408 50.615 455.162 8.41064C455.162 8.72827 446.054 13.2544 445.158 13.8103C442.88 15.1999 440.603 16.6292 438.401 18.1776C437.878 18.5349 435.788 19.6466 435.788 20.3216H435.75Z" fill="#FFA45E"/>
<path d="M454.375 135.124C455.868 131.472 457.809 128.097 460.161 125C459.862 125.159 459.601 125.318 459.302 125.476C458.63 125.873 457.958 126.27 457.287 126.668C454.972 128.057 452.695 129.447 450.418 130.836C448.14 132.226 445.863 133.655 443.586 135.085L442.093 136.037C441.645 136.315 441.197 136.593 440.786 136.911C438.434 139.968 436.493 143.383 435 147.035C435.299 146.876 435.56 146.718 435.859 146.559C436.531 146.162 437.203 145.765 437.874 145.368C440.189 143.978 442.466 142.588 444.743 141.199C447.021 139.809 449.298 138.38 451.575 136.951L453.068 135.998C453.516 135.72 453.964 135.442 454.375 135.124Z" fill="#FFA45E"/>
<path d="M423.058 58.3575H458.335C459.045 58.3575 460.911 57.0075 461.284 56.809C463.599 55.4591 465.913 54.0695 468.191 52.6799C470.468 51.2903 472.745 49.861 475.022 48.392C475.582 48.0347 477.225 46.4465 477.747 46.4465H442.47C441.76 46.4465 439.894 47.7964 439.521 47.995C437.206 49.3449 434.891 50.7345 432.614 52.1241C430.337 53.5137 428.06 54.943 425.783 56.412C425.223 56.7693 423.58 58.3575 423.058 58.3575Z" fill="#FFA45E"/>
<path d="M442.956 16.2327C443.964 15.6371 444.972 15.0416 446.017 14.5254L445.644 14.7239C448.443 13.2946 451.43 12.1432 454.566 12.4609C455.947 12.6197 457.328 13.0167 458.56 13.8108C459.829 14.6445 460.651 15.8753 461.621 17.0664C463.264 19.0516 465.69 19.8853 468.079 18.9722C469.125 18.5751 470.058 17.9399 470.991 17.384C474.09 15.518 477.151 13.652 480.212 11.7462C482.937 10.0787 485.737 8.45085 488.387 6.62451C488.947 6.22748 489.433 5.83045 489.881 5.27461C489.433 5.83045 487.379 6.74362 487.006 6.94213C484.692 8.33174 482.414 9.72135 480.137 11.111C477.86 12.5006 475.583 13.9299 473.306 15.3592C472.484 15.8753 471.103 16.3915 470.506 17.1458C470.207 17.5429 469.871 17.8605 469.461 18.1781L469.797 17.9399L469.498 18.1384L483.721 9.32432L483.422 9.52283L488.275 6.66421C486.409 7.61709 484.132 7.69649 482.377 6.42599C481.369 5.71134 480.66 4.59965 479.876 3.64678C479.017 2.6145 478.047 1.78074 476.852 1.2646C471.626 -1.07788 466.175 2.05866 461.658 4.67906C457.627 7.02154 453.67 9.48313 449.713 11.9447C447.771 13.1358 445.867 14.3269 443.926 15.5577C443.74 15.6768 442.022 16.7885 442.993 16.2327H442.956Z" fill="#FFA45E"/>
<path d="M479.763 32.5108V130.339C479.763 129.545 488.573 125.138 489.543 124.542C491.821 123.153 494.098 121.724 496.375 120.294C496.786 120.056 499.137 118.825 499.137 118.428V20.5999C499.137 21.3939 490.327 25.801 489.357 26.3965C487.08 27.7861 484.802 29.2154 482.525 30.6447C482.115 30.8829 479.763 32.1137 479.763 32.5108Z" fill="#FFA45E"/>
<path d="M479.353 128.513C481.182 132.96 483.347 137.208 485.55 141.457C486.408 143.124 487.304 144.871 488.76 146.022C490.589 147.452 492.531 147.293 494.509 146.34C498.504 144.434 502.349 141.973 506.119 139.59C508.583 138.042 511.308 136.533 513.436 134.429C514.855 133.039 515.9 131.134 517.02 129.466C519.745 125.416 522.47 121.406 525.232 117.357C524.897 117.357 524.561 117.476 524.262 117.635C523.553 117.952 522.843 118.31 522.171 118.667C519.819 119.937 517.505 121.327 515.228 122.717C512.951 124.106 510.673 125.536 508.471 127.084C507.575 127.719 506.455 128.315 505.858 129.228C502.349 134.389 498.952 139.59 495.368 144.712L495.629 144.355C495.442 144.633 495.218 144.911 494.994 145.149C494.845 145.308 494.211 145.903 494.882 145.347L500.557 141.536L500.221 141.734L511.308 135.263C511.756 135.064 511.719 135.064 511.233 135.183L511.644 135.104C507.762 135.461 505.895 131.372 504.327 128.315C502.349 124.464 500.407 120.573 498.728 116.563C498.504 116.047 489.47 121.486 488.723 121.962C486.446 123.352 484.169 124.781 481.966 126.33C481.63 126.568 479.166 128.077 479.353 128.474V128.513Z" fill="#FFA45E"/>
<path d="M541.844 58.0794C545.727 66.8538 554.836 69.8315 561.816 75.112C569.283 80.7895 573.613 89.7227 574.882 99.2912C576.151 108.86 574.546 118.428 569.245 126.289C563.608 134.706 555.657 141.019 548.713 148.126C551.102 145.664 555.545 143.997 558.419 142.21C561.294 140.424 565.587 138.796 568.088 136.215C574.882 129.227 582.647 123.073 588.247 114.894C593.846 106.716 595.526 97.1472 594.257 87.3405C592.988 77.5339 588.881 69.1565 581.676 63.5584C574.472 57.9603 565.176 55.1414 561.219 46.1685C561.443 46.6846 541.508 57.4044 541.807 58.0794H541.844Z" fill="#FFA45E"/>
<path d="M539.754 60.3426C528.741 73.9607 512.577 94.249 523.179 112.751C530.496 125.495 545.092 132.92 548.676 148.166C548.676 148.007 557.747 142.925 558.494 142.449C559.39 141.893 568.275 137.168 568.051 136.255C564.467 121.009 549.871 113.624 542.554 100.84C531.914 82.2984 548.079 62.0101 559.129 48.4316C558.793 48.8684 556.403 49.9007 556.18 49.9801C553.865 51.33 551.55 52.7196 549.273 54.1092C546.399 55.8958 541.919 57.5633 539.717 60.3029L539.754 60.3426Z" fill="#FFA45E"/>
<path d="M705.093 58.0794C708.975 66.8538 718.084 69.8315 725.065 75.112C732.531 80.7895 736.861 89.7227 738.131 99.2912C739.4 108.86 737.795 118.428 732.494 126.289C726.857 134.706 718.905 141.019 711.962 148.126C714.351 145.664 718.793 143.997 721.668 142.21C724.542 140.424 728.835 138.796 731.336 136.215C738.131 129.227 745.896 123.073 751.495 114.894C757.095 106.716 758.775 97.1472 757.505 87.3405C756.236 77.5339 752.13 69.1565 744.925 63.5584C737.72 57.9603 728.425 55.1414 724.468 46.1685C724.692 46.6846 704.757 57.4044 705.056 58.0794H705.093Z" fill="#FFA45E"/>
<path d="M703.04 60.3426C692.027 73.9607 675.863 94.249 686.465 112.751C693.782 125.495 708.378 132.92 711.962 148.166C711.962 148.007 721.033 142.925 721.78 142.449C722.676 141.893 731.56 137.168 731.336 136.255C727.753 121.009 713.156 113.624 705.839 100.84C695.2 82.2984 711.364 62.0101 722.414 48.4316C722.078 48.8684 719.689 49.9007 719.465 49.9801C717.151 51.33 714.836 52.7196 712.559 54.1092C709.685 55.8958 705.205 57.5633 703.002 60.3029L703.04 60.3426Z" fill="#FFA45E"/>
<path d="M595.078 57.0474C605.717 67.2908 602.544 86.6262 602.283 100.205C602.096 109.495 601.91 118.825 601.76 128.116C601.648 134.985 601.835 144.196 609.488 146.22C609.861 146.34 612.474 144.553 612.4 144.593C614.714 143.243 616.991 141.813 619.268 140.424C621.546 139.034 623.823 137.605 626.1 136.176C626.548 135.898 628.527 134.23 628.9 134.31C621.546 132.364 621.06 123.749 621.135 117.078C621.284 107.47 621.508 97.8622 621.695 88.2937C621.956 74.755 625.129 55.4196 614.49 45.1365C613.968 44.6204 605.568 50.417 604.709 50.9331C603.888 51.4096 595.451 57.365 595.078 57.0474Z" fill="#FFA45E"/>
<path d="M635.545 53.6334C636.142 52.7203 636.74 51.8468 637.337 50.9336L637.076 51.291C638.27 49.5837 639.502 47.8765 640.921 46.3281C641.593 45.5737 642.302 44.8988 643.049 44.2238C643.683 43.668 642.526 44.5811 642.974 44.2635C643.385 43.9856 644.206 43.39 642.414 44.6605C642.078 44.8988 628.714 53.157 628.527 52.9585C628.527 52.9585 629.385 52.76 629.423 52.7203H628.975C632.372 52.482 634.052 56.3729 635.022 59.2713C635.172 59.7477 644.318 54.3878 645.064 53.9114C647.342 52.5218 649.619 51.0924 651.821 49.5043C652.195 49.2264 654.584 47.7971 654.435 47.3207C653.725 45.1767 652.755 42.7151 650.888 41.4446C649.843 40.7696 648.686 40.6902 647.528 40.9682C646.184 41.2858 644.803 42.1195 643.571 42.7548C640.062 44.6208 636.628 46.7251 633.231 48.8691C629.012 51.5689 624.644 54.3084 621.322 58.2787C619.418 60.5021 617.776 63.0034 616.17 65.4649C616.506 65.4649 616.842 65.3855 617.141 65.187C617.85 64.8694 618.56 64.5518 619.269 64.1547C621.621 62.924 623.935 61.5343 626.212 60.105C628.49 58.6757 630.767 57.2861 632.969 55.698C633.865 55.0627 634.948 54.4672 635.582 53.5143L635.545 53.6334Z" fill="#FFA45E"/>
<path d="M647.976 34.0199H659.885C660.781 34.0199 662.274 33.0274 662.946 32.67C665.298 31.3995 667.612 30.0099 669.889 28.6203C672.167 27.2307 674.444 25.8014 676.646 24.253L678.102 23.2207C678.587 22.9428 678.961 22.5854 679.259 22.109H667.351C666.455 22.109 664.962 23.1016 664.29 23.4589C661.938 24.7294 659.623 26.119 657.346 27.5086C655.069 28.8982 652.792 30.3275 650.589 31.876L649.133 32.9082C648.648 33.1862 648.275 33.5435 647.976 34.0199Z" fill="#FFA45E"/>
<path d="M649.993 57.2063C653.95 58.7547 654.809 64.1146 655.704 68.0055C656.899 73.1272 657.646 78.368 658.056 83.6485C658.915 94.6066 658.43 105.644 658.056 116.602C657.87 122.002 657.72 127.362 657.758 132.761C657.758 137.168 657.048 143.521 659.102 147.57C661.155 151.62 664.776 150.151 667.837 148.365C673.474 145.109 680.193 141.972 684.972 137.367C684.412 137.883 682.508 138.637 682.023 138.915C679.708 140.265 677.394 141.655 675.116 143.044C672.018 144.95 668.248 146.657 665.56 149.238L664.888 149.873L683.889 138.121C675.975 141.734 677.132 123.749 677.132 119.977C677.132 110.885 677.618 101.833 677.804 92.7802C677.991 83.7279 677.954 74.8344 676.796 65.941C676.236 61.5339 675.415 57.1269 674.183 52.8787C673.287 49.7818 672.391 46.5659 669.293 45.3351C668.92 45.1763 666.269 46.9629 666.344 46.8835C664.029 48.2334 661.715 49.623 659.438 51.0126C657.16 52.4022 654.883 53.8315 652.606 55.3005C652.233 55.5388 650.068 57.2857 649.881 57.2063H649.993Z" fill="#FFA45E"/>
<path d="M391.213 57.2063C395.17 58.7547 396.029 64.1146 396.925 68.0055C398.119 73.1272 398.866 78.368 399.277 83.6485C400.135 94.6066 399.65 105.644 399.277 116.602C399.09 122.002 398.941 127.362 398.978 132.761C398.978 137.168 398.269 143.521 400.322 147.57C402.375 151.62 405.996 150.151 409.057 148.365C414.694 145.109 421.414 141.972 426.192 137.367C425.632 137.883 423.728 138.637 423.243 138.915C420.928 140.265 418.614 141.655 416.337 143.044C413.238 144.95 409.468 146.657 406.78 149.238L406.108 149.873L425.109 138.121C417.195 141.734 418.353 123.749 418.353 119.977C418.353 110.885 418.838 101.833 419.025 92.7802C419.211 83.7279 419.174 74.8344 418.017 65.941C417.457 61.5339 416.635 57.1269 415.403 52.8787C414.507 49.7818 413.612 46.5659 410.513 45.3351C410.14 45.1763 407.489 46.9629 407.564 46.8835C405.249 48.2334 402.935 49.623 400.658 51.0126C398.381 52.4022 396.103 53.8315 393.826 55.3005C393.453 55.5388 391.288 57.2857 391.101 57.2063H391.213Z" fill="#FFA45E"/>
</svg>
