<svg width="72" height="72" viewBox="0 0 72 72" fill="none" xmlns="http://www.w3.org/2000/svg">
<mask id="mask0_465_300" style="mask-type:luminance" maskUnits="userSpaceOnUse" x="6" y="6" width="60" height="60">
<path d="M65.4059 6H6V66H65.4059V6Z" fill="white"/>
</mask>
<g mask="url(#mask0_465_300)">
<path fill-rule="evenodd" clip-rule="evenodd" d="M10.1759 10.2177C6 14.4353 6 21.2236 6 34.8V37.2C6 50.7764 6 57.5647 10.1759 61.7824C14.3518 66 21.0728 66 34.5149 66H36.8911C50.3331 66 57.0541 66 61.2301 61.7824C65.4059 57.5647 65.4059 50.7764 65.4059 37.2V34.8C65.4059 21.2236 65.4059 14.4353 61.2301 10.2177C57.0541 6 50.3331 6 36.8911 6H34.5149C21.0728 6 14.3518 6 10.1759 10.2177ZM16.0249 24.2501C16.3466 39.8501 24.0693 49.2251 37.609 49.2251H38.3764V40.3001C43.3517 40.8001 47.1138 44.4751 48.6236 49.2251H55.6536C53.7229 42.1251 48.6484 38.2001 45.4801 36.7001C48.6484 34.8501 53.1039 30.3501 54.1682 24.2501H47.7819C46.3957 29.2001 42.2873 33.7001 38.3764 34.1251V24.2501H31.99V41.5501C28.0297 40.5501 23.0298 35.7001 22.807 24.2501H16.0249Z" fill="#FFA45E"/>
</g>
</svg>
